<svg width="18" height="18" viewBox="0 0 18 18" fill="none" xmlns="http://www.w3.org/2000/svg">
<path fill-rule="evenodd" clip-rule="evenodd" d="M7.2 0C5.70883 0 4.5 1.20884 4.5 2.7H1.8H0.9C0.402948 2.7 0 3.10295 0 3.6C0 4.09705 0.402948 4.5 0.9 4.5H1.8V15.3C1.8 16.7912 3.00883 18 4.5 18H13.5C14.9912 18 16.2 16.7912 16.2 15.3V4.5H17.1C17.5971 4.5 18 4.09705 18 3.6C18 3.10295 17.5971 2.7 17.1 2.7H16.2H13.5C13.5 1.20884 12.2912 0 10.8 0H7.2ZM11.7 2.7C11.7 2.20295 11.2971 1.8 10.8 1.8H7.2C6.70295 1.8 6.3 2.20295 6.3 2.7H11.7ZM4.5 4.5H3.6V15.3C3.6 15.7971 4.00295 16.2 4.5 16.2H13.5C13.9971 16.2 14.4 15.7971 14.4 15.3V4.5H13.5H4.5Z" fill="#4F46BB"/>
</svg>
