<svg width="19" height="19" viewBox="0 0 19 19" fill="none" xmlns="http://www.w3.org/2000/svg">
<path fill-rule="evenodd" clip-rule="evenodd" d="M11.7467 0.878677C12.9182 -0.292892 14.8177 -0.292892 15.9893 0.878677L17.4035 2.2929C18.5751 3.46447 18.5751 5.36397 17.4035 6.53554L7.01096 16.9281C6.87136 17.0677 6.69356 17.1628 6.49997 17.2015L1.19667 18.2622C0.496947 18.4021 -0.119973 17.7852 0.0199768 17.0855L1.08064 11.7822C1.11935 11.5886 1.21451 11.4108 1.35411 11.2712L11.7467 0.878677ZM14.5751 2.2929L15.9893 3.70711C16.3798 4.09764 16.3798 4.7308 15.9893 5.12132L14.5751 6.53554L11.7467 3.70711L13.1609 2.2929C13.5514 1.90237 14.1846 1.90237 14.5751 2.2929ZM10.3324 5.12133L2.98242 12.4713L2.27531 16.0069L5.81084 15.2998L13.1609 7.94978L10.3324 5.12133Z" fill="#4F46BB"/>
</svg>
